<?xml version="1.0" standalone="no"?>
<!DOCTYPE svg PUBLIC "-//W3C//DTD SVG 20010904//EN"
 "http://www.w3.org/TR/2001/REC-SVG-20010904/DTD/svg10.dtd">
<svg version="1.0" xmlns="http://www.w3.org/2000/svg"
 width="346.000000pt" height="144.000000pt" viewBox="0 0 346.000000 144.000000"
 preserveAspectRatio="xMidYMid meet">

<g transform="translate(0.000000,144.000000) scale(0.100000,-0.100000)"
fill="#fff" stroke="none">
<path d="M1530 950 c0 -110 0 -110 24 -110 21 0 25 5 28 38 3 35 5 37 43 40
22 2 43 9 47 15 12 19 9 102 -4 115 -7 7 -39 12 -75 12 l-63 0 0 -110z m88 38
c-2 -21 -8 -33 -18 -33 -10 0 -16 12 -18 33 -3 27 0 32 18 32 18 0 21 -5 18
-32z"/>
<path d="M1750 950 l0 -110 29 0 c28 0 30 3 33 43 l3 42 19 -42 c15 -36 23
-43 47 -43 34 0 34 1 13 42 -13 24 -14 35 -4 52 6 12 10 44 8 72 l-3 49 -72 3
-73 3 0 -111z m100 40 c0 -23 -4 -30 -20 -30 -16 0 -20 7 -20 30 0 23 4 30 20
30 16 0 20 -7 20 -30z"/>
<path d="M1992 1048 c-8 -8 -12 -45 -12 -100 0 -98 7 -108 75 -108 68 0 75 10
75 108 0 55 -4 92 -12 100 -16 16 -110 16 -126 0z m78 -98 c0 -56 -3 -70 -15
-70 -12 0 -15 14 -15 70 0 56 3 70 15 70 12 0 15 -14 15 -70z"/>
<path d="M2210 950 l0 -110 30 0 c29 0 30 2 30 45 0 43 1 45 30 45 20 0 30 5
30 15 0 10 -10 15 -30 15 -27 0 -30 3 -30 30 0 28 3 30 35 30 28 0 35 4 35 20
0 18 -7 20 -65 20 l-65 0 0 -110z"/>
<path d="M2412 960 c3 -112 8 -120 71 -120 72 0 77 8 77 120 0 100 0 100 -25
100 -24 0 -24 -2 -27 -87 -3 -74 -6 -88 -20 -91 -16 -3 -18 6 -18 87 l0 91
-31 0 -31 0 4 -100z"/>
<path d="M2652 1048 c-6 -6 -12 -31 -12 -55 0 -46 17 -63 64 -63 21 0 26 -5
26 -25 0 -16 -6 -25 -15 -25 -8 0 -15 7 -15 15 0 10 -10 15 -30 15 -25 0 -30
-4 -30 -25 0 -30 26 -45 77 -45 50 0 63 10 69 52 9 51 -9 78 -51 78 -31 0 -35
3 -35 25 0 16 6 25 15 25 8 0 15 -4 15 -10 0 -5 12 -10 26 -10 22 0 25 4 22
28 -3 25 -6 27 -58 30 -34 2 -60 -2 -68 -10z"/>
<path d="M2860 950 l0 -110 30 0 30 0 0 110 0 110 -30 0 -30 0 0 -110z"/>
<path d="M3012 1048 c-8 -8 -12 -45 -12 -100 0 -98 7 -108 75 -108 68 0 75 10
75 108 0 55 -4 92 -12 100 -16 16 -110 16 -126 0z m78 -98 c0 -56 -3 -70 -15
-70 -12 0 -15 14 -15 70 0 56 3 70 15 70 12 0 15 -14 15 -70z"/>
<path d="M3230 951 l0 -111 25 0 c22 0 24 4 27 58 l3 57 27 -57 c20 -43 32
-58 47 -58 20 0 21 6 21 110 l0 110 -25 0 c-24 0 -25 -3 -25 -57 l-1 -58 -23
55 c-19 44 -29 56 -50 58 l-26 3 0 -110z"/>
<path d="M270 515 c0 -256 3 -465 8 -465 4 1 48 25 97 54 l90 52 3 311 2 312
170 3 c168 3 170 3 196 29 51 52 28 139 -43 158 -22 6 -143 11 -280 11 l-243
0 0 -465z"/>
</g>
</svg>
