<svg xmlns="http://www.w3.org/2000/svg" viewBox="0 0 355.14 65.63"><defs><style>.cls-1{fill:#fff;}</style></defs><g id="Layer_2" data-name="Layer 2"><g id="Layer_1-2" data-name="Layer 1"><path class="cls-1" d="M29,54.24c-.07-.84-.12-1.27-.12-1.7,0-3.9,0-7.81,0-11.72,0-1.12.4-1.51,1.46-1.48,1.31,0,2.64.08,4,0,5.66-.42,10-3,12.66-8.07a14.63,14.63,0,0,0-5.49-19.39,13.23,13.23,0,0,0-7.15-2c-7.83,0-15.66,0-23.49,0a3.06,3.06,0,0,1-2.35-.91l-8-8A4.11,4.11,0,0,1,0,.3,8.72,8.72,0,0,1,1.52,0c11.07,0,22.14,0,33.2,0,7.22,0,13.09,3.16,17.77,8.51a23.57,23.57,0,0,1,5.61,20A23.72,23.72,0,0,1,47.32,45.09a29.48,29.48,0,0,1-7.94,3.47,26.2,26.2,0,0,0-5,2.66C32.65,52.16,31,53.13,29,54.24Z"/><path class="cls-1" d="M9.38,65.63c-.08-.82-.18-1.27-.18-1.73q0-21.36,0-42.7c0-1.17.41-1.53,1.53-1.53,7.71,0,15.41.08,23.12,0a5.06,5.06,0,0,1,4.89,4.83,5,5,0,0,1-4.87,5c-4.15.06-8.31,0-12.46,0-2.33,0-2.34,0-2.34,2.27,0,8.73,0,17.46,0,26.19A2.88,2.88,0,0,1,17.41,61C14.77,62.37,12.25,64,9.38,65.63Z"/><path class="cls-1" d="M67.66,17.55h9.23v5.1h.6a9.47,9.47,0,0,1,1.8-2.47,13.39,13.39,0,0,1,2.51-2,15.08,15.08,0,0,1,3-1.35A10.57,10.57,0,0,1,88,16.35a11.66,11.66,0,0,1,3.34.42,8.73,8.73,0,0,1,2.36,1.08l-2.63,8.78a9.64,9.64,0,0,0-2-.72,11.93,11.93,0,0,0-2.67-.26,8.47,8.47,0,0,0-3.67.79,8,8,0,0,0-2.81,2.23A10.27,10.27,0,0,0,78.13,32a13.1,13.1,0,0,0-.64,4.19V54.3H67.66Z"/><path class="cls-1" d="M115.21,16.35a20.53,20.53,0,0,1,7.84,1.46,18.6,18.6,0,0,1,6.15,4.05,18.37,18.37,0,0,1,4.05,6.19,20.66,20.66,0,0,1,1.46,7.88,20.61,20.61,0,0,1-1.46,7.87A18.37,18.37,0,0,1,129.2,50a18.6,18.6,0,0,1-6.15,4,21.75,21.75,0,0,1-15.67,0,18.6,18.6,0,0,1-6.15-4,18.37,18.37,0,0,1-4-6.19,20.61,20.61,0,0,1-1.47-7.87,20.66,20.66,0,0,1,1.47-7.88,18.37,18.37,0,0,1,4-6.19,18.6,18.6,0,0,1,6.15-4.05A20.48,20.48,0,0,1,115.21,16.35Zm0,30.08a9.53,9.53,0,0,0,3.64-.72A9.14,9.14,0,0,0,122,43.65a9.71,9.71,0,0,0,2.14-3.3,11.61,11.61,0,0,0,.79-4.42,11.66,11.66,0,0,0-.79-4.43A9.71,9.71,0,0,0,122,28.2a9.14,9.14,0,0,0-3.11-2.06,9.52,9.52,0,0,0-3.64-.71,9.41,9.41,0,0,0-3.67.71,9.31,9.31,0,0,0-3.08,2.06,9.69,9.69,0,0,0-2.13,3.3,11.66,11.66,0,0,0-.79,4.43,11.61,11.61,0,0,0,.79,4.42,9.69,9.69,0,0,0,2.13,3.3,9.31,9.31,0,0,0,3.08,2.06A9.42,9.42,0,0,0,115.21,46.43Z"/><path class="cls-1" d="M159.91,0a19.11,19.11,0,0,1,3.9.38,17.59,17.59,0,0,1,3.23,1l-2.78,8.78a8.35,8.35,0,0,0-1.61-.6,8.59,8.59,0,0,0-2.14-.23,4.44,4.44,0,0,0-3.45,1.39,5.48,5.48,0,0,0-1.27,3.86v3h9.15V26h-9.15V54.3H146V26h-6.6v-8.4H146V14a16.15,16.15,0,0,1,1-6,11.59,11.59,0,0,1,2.88-4.35,12.73,12.73,0,0,1,4.43-2.7A16,16,0,0,1,159.91,0Z"/><path class="cls-1" d="M198.09,49.5h-.6a12.5,12.5,0,0,1-4.65,4.39,13.67,13.67,0,0,1-6.68,1.61q-7,0-10.39-4.27t-3.41-11.4V17.55h9.83V38.63c0,2.65.58,4.61,1.76,5.88a6.62,6.62,0,0,0,5.14,1.92,7.11,7.11,0,0,0,3.56-.87,8.28,8.28,0,0,0,2.62-2.32,10.42,10.42,0,0,0,1.65-3.45,15.35,15.35,0,0,0,.57-4.24v-18h9.82V54.3h-9.22Z"/><path class="cls-1" d="M231.76,55.5a21,21,0,0,1-6.41-.9,17.86,17.86,0,0,1-4.88-2.36A15.54,15.54,0,0,1,217,48.86,16.17,16.17,0,0,1,214.81,45l8.78-3.75A9.48,9.48,0,0,0,227,45.49a8.61,8.61,0,0,0,4.76,1.39,8.1,8.1,0,0,0,4.28-1,2.76,2.76,0,0,0,1.57-2.32,2.88,2.88,0,0,0-1.31-2.44,13.53,13.53,0,0,0-4.54-1.69l-5.17-1.12a18.29,18.29,0,0,1-3.57-1.2,14,14,0,0,1-3.33-2.1A10.68,10.68,0,0,1,217.21,32a8.68,8.68,0,0,1-1-4.2A9.69,9.69,0,0,1,217.4,23a10.73,10.73,0,0,1,3.19-3.56,15,15,0,0,1,4.76-2.25,21,21,0,0,1,5.89-.79,20.72,20.72,0,0,1,9.37,2.06A12.74,12.74,0,0,1,246.69,25l-8.48,3.45a6.49,6.49,0,0,0-3.07-3.15,9.27,9.27,0,0,0-4-1,7.61,7.61,0,0,0-3.68.86,2.54,2.54,0,0,0-1.57,2.22,2.25,2.25,0,0,0,1.31,2,15.13,15.13,0,0,0,3.56,1.35l5.63,1.35q5.63,1.35,8.36,4.31a10,10,0,0,1,2.74,7A9.81,9.81,0,0,1,246.31,48a12.14,12.14,0,0,1-3.19,3.86,15.48,15.48,0,0,1-4.94,2.67A20.31,20.31,0,0,1,231.76,55.5Z"/><path class="cls-1" d="M260.41,12.6a6.18,6.18,0,0,1-2.44-.49,6.07,6.07,0,0,1-2-1.35,6.15,6.15,0,0,1-1.84-4.46,6.05,6.05,0,0,1,.49-2.47,6.15,6.15,0,0,1,1.35-2,6.07,6.07,0,0,1,2-1.35,6.39,6.39,0,0,1,6.94,1.35,6,6,0,0,1,1.88,4.46,6,6,0,0,1-1.88,4.46A6.18,6.18,0,0,1,260.41,12.6Zm-4.87,41.7V17.55h9.82V54.3Z"/><path class="cls-1" d="M293.26,16.35a20.57,20.57,0,0,1,7.84,1.46,18.17,18.17,0,0,1,10.2,10.24,20.85,20.85,0,0,1,1.46,7.88,20.8,20.8,0,0,1-1.46,7.87A18.17,18.17,0,0,1,301.1,54a21.78,21.78,0,0,1-15.68,0,18.17,18.17,0,0,1-10.2-10.24,20.8,20.8,0,0,1-1.46-7.87,20.85,20.85,0,0,1,1.46-7.88,18.17,18.17,0,0,1,10.2-10.24A20.57,20.57,0,0,1,293.26,16.35Zm0,30.08a9.56,9.56,0,0,0,3.64-.72A9.23,9.23,0,0,0,300,43.65a9.86,9.86,0,0,0,2.14-3.3,12.79,12.79,0,0,0,0-8.85A9.86,9.86,0,0,0,300,28.2a9.23,9.23,0,0,0-3.11-2.06,9.55,9.55,0,0,0-3.64-.71,9.41,9.41,0,0,0-3.67.71,9.31,9.31,0,0,0-3.08,2.06,9.86,9.86,0,0,0-2.14,3.3,11.86,11.86,0,0,0-.78,4.43,11.81,11.81,0,0,0,.78,4.42,9.86,9.86,0,0,0,2.14,3.3,9.31,9.31,0,0,0,3.08,2.06A9.42,9.42,0,0,0,293.26,46.43Z"/><path class="cls-1" d="M329.41,22.35h.6A12.5,12.5,0,0,1,334.66,18a13.67,13.67,0,0,1,6.68-1.61,15.29,15.29,0,0,1,6.07,1.13,11.11,11.11,0,0,1,4.31,3.18,14,14,0,0,1,2.55,4.95,22.25,22.25,0,0,1,.87,6.42V54.3h-9.83V33.23c0-2.65-.59-4.62-1.76-5.89a6.63,6.63,0,0,0-5.14-1.91,7.08,7.08,0,0,0-3.56.86,8.32,8.32,0,0,0-2.63,2.32,10.83,10.83,0,0,0-1.65,3.45A15.74,15.74,0,0,0,330,36.3v18h-9.82V17.55h9.22Z"/></g></g></svg>